<svg width="273" height="32" viewBox="0 0 273 32" fill="none" xmlns="http://www.w3.org/2000/svg">
<path d="M0.52 2.68H9.16C10.3333 2.68 11.48 2.8 12.6 3.04C13.72 3.28 14.72 3.68 15.6 4.24C16.48 4.77333 17.1867 5.48 17.72 6.36C18.28 7.24 18.56 8.33333 18.56 9.64C18.56 11.2933 18.1067 12.6667 17.2 13.76C16.32 14.8267 15.12 15.5867 13.6 16.04V16.12C14.5067 16.2 15.3467 16.44 16.12 16.84C16.92 17.2133 17.6 17.7067 18.16 18.32C18.7467 18.9333 19.2 19.6533 19.52 20.48C19.84 21.28 20 22.1467 20 23.08C20 24.6533 19.6667 25.9467 19 26.96C18.36 27.9733 17.5067 28.7867 16.44 29.4C15.4 29.9867 14.2133 30.4 12.88 30.64C11.5733 30.88 10.2667 31 8.96 31H0.52V2.68ZM3.88 14.68H8.52C9.32 14.68 10.0933 14.6267 10.84 14.52C11.6133 14.4133 12.3067 14.2 12.92 13.88C13.5333 13.5333 14.0267 13.0667 14.4 12.48C14.7733 11.8667 14.96 11.0667 14.96 10.08C14.96 9.2 14.7867 8.49333 14.44 7.96C14.0933 7.4 13.6267 6.96 13.04 6.64C12.48 6.32 11.8267 6.10667 11.08 6C10.36 5.86667 9.62667 5.8 8.88 5.8H3.88V14.68ZM3.88 27.88H9.56C10.3867 27.88 11.2 27.8 12 27.64C12.8267 27.4533 13.56 27.1733 14.2 26.8C14.8667 26.4 15.4 25.8933 15.8 25.28C16.2 24.64 16.4 23.8667 16.4 22.96C16.4 21.9733 16.2 21.1467 15.8 20.48C15.4267 19.8133 14.92 19.28 14.28 18.88C13.6667 18.48 12.9467 18.2 12.12 18.04C11.32 17.88 10.4933 17.8 9.64 17.8H3.88V27.88ZM25.4353 0.759998H28.5553V31H25.4353V0.759998ZM51.0847 26.56C51.0847 27.4133 51.1114 28.2133 51.1647 28.96C51.218 29.7067 51.2447 30.3867 51.2447 31H48.2847C48.2847 30.4933 48.2714 29.9867 48.2447 29.48C48.218 28.9733 48.2047 28.4533 48.2047 27.92H48.1247C47.9114 28.3733 47.6047 28.8133 47.2047 29.24C46.8314 29.6667 46.378 30.0533 45.8447 30.4C45.3114 30.72 44.7114 30.9733 44.0447 31.16C43.378 31.3733 42.658 31.48 41.8847 31.48C40.658 31.48 39.5914 31.2933 38.6847 30.92C37.8047 30.5467 37.0714 30.0267 36.4847 29.36C35.898 28.6933 35.458 27.8933 35.1647 26.96C34.898 26 34.7647 24.96 34.7647 23.84V12.28H37.8847V23.52C37.8847 25.0933 38.2314 26.3333 38.9247 27.24C39.618 28.1467 40.698 28.6 42.1647 28.6C43.178 28.6 44.0447 28.4267 44.7647 28.08C45.5114 27.7333 46.1114 27.24 46.5647 26.6C47.0447 25.96 47.3914 25.2 47.6047 24.32C47.8447 23.44 47.9647 22.4667 47.9647 21.4V12.28H51.0847V26.56ZM73.7113 27.6C72.5913 29.04 71.3646 30.0533 70.0313 30.64C68.6979 31.2 67.1513 31.48 65.3913 31.48C63.9246 31.48 62.6046 31.2267 61.4313 30.72C60.2579 30.1867 59.2579 29.48 58.4313 28.6C57.6313 27.72 57.0046 26.68 56.5513 25.48C56.1246 24.28 55.9113 23 55.9113 21.64C55.9113 20.2 56.1513 18.88 56.6313 17.68C57.1113 16.4533 57.7779 15.4133 58.6313 14.56C59.4846 13.68 60.4979 13 61.6713 12.52C62.8446 12.04 64.1246 11.8 65.5113 11.8C66.8179 11.8 68.0179 12.0267 69.1113 12.48C70.2046 12.9067 71.1379 13.5467 71.9113 14.4C72.7113 15.2267 73.3246 16.2533 73.7513 17.48C74.1779 18.68 74.3913 20.0533 74.3913 21.6V22.6H59.2713C59.3246 23.4 59.5113 24.1733 59.8313 24.92C60.1779 25.64 60.6179 26.28 61.1513 26.84C61.6846 27.3733 62.3113 27.8 63.0313 28.12C63.7513 28.44 64.5379 28.6 65.3913 28.6C66.7513 28.6 67.8979 28.36 68.8313 27.88C69.7646 27.4 70.6046 26.6933 71.3513 25.76L73.7113 27.6ZM71.0313 19.96C70.9779 18.36 70.4579 17.08 69.4713 16.12C68.4846 15.16 67.1246 14.68 65.3913 14.68C63.6579 14.68 62.2579 15.16 61.1913 16.12C60.1246 17.08 59.4846 18.36 59.2713 19.96H71.0313ZM76.4978 2.68H80.2178L86.6578 26.2H86.7378L93.6978 2.68H97.4578L104.378 26.2H104.458L111.018 2.68H114.538L106.218 31H102.578L95.5778 7H95.4978L88.4578 31H84.7778L76.4978 2.68ZM116.009 14.68C116.969 13.6933 118.102 12.9733 119.409 12.52C120.742 12.04 122.089 11.8 123.449 11.8C126.222 11.8 128.222 12.4533 129.449 13.76C130.676 15.0667 131.289 17.0533 131.289 19.72V27.76C131.289 28.2933 131.316 28.8533 131.369 29.44C131.422 30 131.489 30.52 131.569 31H128.569C128.462 30.5733 128.396 30.1067 128.369 29.6C128.369 29.0667 128.369 28.6 128.369 28.2H128.289C127.676 29.16 126.849 29.9467 125.809 30.56C124.796 31.1733 123.569 31.48 122.129 31.48C121.169 31.48 120.262 31.36 119.409 31.12C118.582 30.88 117.849 30.5333 117.209 30.08C116.596 29.6 116.102 29.0133 115.729 28.32C115.356 27.6267 115.169 26.8267 115.169 25.92C115.169 24.3733 115.569 23.16 116.369 22.28C117.169 21.4 118.156 20.7467 119.329 20.32C120.529 19.8933 121.809 19.6267 123.169 19.52C124.556 19.4133 125.822 19.36 126.969 19.36H128.169V18.8C128.169 17.44 127.756 16.4133 126.929 15.72C126.129 15.0267 124.996 14.68 123.529 14.68C122.516 14.68 121.516 14.8533 120.529 15.2C119.569 15.52 118.716 16.0267 117.969 16.72L116.009 14.68ZM125.049 22C123.049 22 121.462 22.28 120.289 22.84C119.116 23.4 118.529 24.32 118.529 25.6C118.529 26.7733 118.916 27.6133 119.689 28.12C120.489 28.6 121.476 28.84 122.649 28.84C123.556 28.84 124.342 28.6933 125.009 28.4C125.702 28.08 126.276 27.6667 126.729 27.16C127.182 26.6533 127.529 26.0667 127.769 25.4C128.009 24.7067 128.142 23.9733 128.169 23.2V22H125.049ZM145.511 31H142.071L134.431 12.28H138.071L143.911 26.96H143.991L149.551 12.28H152.911L145.511 31ZM173.008 27.6C171.888 29.04 170.661 30.0533 169.328 30.64C167.995 31.2 166.448 31.48 164.688 31.48C163.221 31.48 161.901 31.2267 160.728 30.72C159.555 30.1867 158.555 29.48 157.728 28.6C156.928 27.72 156.301 26.68 155.848 25.48C155.421 24.28 155.208 23 155.208 21.64C155.208 20.2 155.448 18.88 155.928 17.68C156.408 16.4533 157.075 15.4133 157.928 14.56C158.781 13.68 159.795 13 160.968 12.52C162.141 12.04 163.421 11.8 164.808 11.8C166.115 11.8 167.315 12.0267 168.408 12.48C169.501 12.9067 170.435 13.5467 171.208 14.4C172.008 15.2267 172.621 16.2533 173.048 17.48C173.475 18.68 173.688 20.0533 173.688 21.6V22.6H158.568C158.621 23.4 158.808 24.1733 159.128 24.92C159.475 25.64 159.915 26.28 160.448 26.84C160.981 27.3733 161.608 27.8 162.328 28.12C163.048 28.44 163.835 28.6 164.688 28.6C166.048 28.6 167.195 28.36 168.128 27.88C169.061 27.4 169.901 26.6933 170.648 25.76L173.008 27.6ZM170.328 19.96C170.275 18.36 169.755 17.08 168.768 16.12C167.781 15.16 166.421 14.68 164.688 14.68C162.955 14.68 161.555 15.16 160.488 16.12C159.421 17.08 158.781 18.36 158.568 19.96H170.328Z" fill="#344054"/>
<path d="M190.208 2.68H193.568V14.68H208.688V2.68H212.048V31H208.688V17.8H193.568V31H190.208V2.68ZM219.075 2.68H226.315C227.675 2.68 229.021 2.76 230.355 2.92C231.715 3.08 232.928 3.42666 233.995 3.96C235.061 4.49333 235.928 5.28 236.595 6.32C237.261 7.33333 237.595 8.72 237.595 10.48C237.595 12.56 236.968 14.24 235.715 15.52C234.461 16.8 232.728 17.6133 230.515 17.96L238.555 31H234.435L226.755 18.28H222.435V31H219.075V2.68ZM222.435 15.16H225.435C226.368 15.16 227.328 15.1333 228.315 15.08C229.328 15.0267 230.248 14.8533 231.075 14.56C231.928 14.2667 232.621 13.8133 233.155 13.2C233.715 12.56 233.995 11.6533 233.995 10.48C233.995 9.46667 233.795 8.65333 233.395 8.04C232.995 7.42667 232.461 6.96 231.795 6.64C231.155 6.29333 230.421 6.06667 229.595 5.96C228.795 5.85333 227.981 5.8 227.155 5.8H222.435V15.16ZM243.528 2.68H248.528L258.128 24.88H258.208L267.888 2.68H272.768V31H269.408V7.24H269.328L259.168 31H257.128L246.968 7.24H246.888V31H243.528V2.68Z" fill="#7F56D9"/>
</svg>
