<?xml version="1.0" encoding="UTF-8"?>
<svg id="Layer_1" data-name="Layer 1" xmlns="http://www.w3.org/2000/svg" viewBox="0 0 650 250">
  <defs>
    <style>
      .cls-1 {
        fill: #104726;
        stroke-width: 0px;
      }
    </style>
  </defs>
  <path class="cls-1" d="m59.16,171.54c-11.63,0-17.05-2.64-17.05-16.44v-52.44c0-13.81,5.42-16.44,17.05-16.44h37.67c11.63,0,17.05,2.64,17.05,16.44v19.39c0,13.81-5.43,16.44-17.05,16.44h-38.75v12.57c0,5.27,1.39,5.43,8.22,5.43h44.18v15.05h-51.31Zm38.91-64.69c0-4.5-.93-5.43-5.58-5.43h-28.83c-4.65,0-5.58.93-5.58,5.43v16.6h34.41c4.65,0,5.58-.93,5.58-5.43v-11.17Z"/>
  <path class="cls-1" d="m177.55,171.54v-64.69c0-4.5-.93-5.43-5.58-5.43h-28.83c-4.65,0-5.58.93-5.58,5.43v64.69h-15.97v-68.88c0-13.81,5.43-16.44,17.05-16.44h37.67c11.63,0,17.05,2.64,17.05,16.44v68.88h-15.81Z"/>
  <path class="cls-1" d="m232.23,171.54c-11.63,0-17.05-2.64-17.05-16.44v-53.68h-14.11v-15.2h14.11v-31.96h15.97v31.96h17.67v15.2h-17.67v49.64c0,4.5.93,5.43,5.58,5.43h12.09v15.05h-16.59Z"/>
  <path class="cls-1" d="m312.49,171.54v-64.69c0-4.5-.93-5.43-5.58-5.43h-34.41v70.12h-15.97V47.43h15.97v38.79h38.75c11.63,0,17.05,2.64,17.05,16.44v68.88h-15.81Z"/>
  <path class="cls-1" d="m353.06,171.54c-11.63,0-17.05-2.64-17.05-16.44v-20.48c0-13.81,5.43-16.44,17.05-16.44h38.75v-11.32c0-4.5-.93-5.43-5.58-5.43h-48.52v-15.2h53.02c11.63,0,17.05,2.64,17.05,16.44v52.44c0,13.81-5.43,16.44-17.05,16.44h-37.67Zm38.75-38.16h-34.41c-4.65,0-5.58.93-5.58,5.43v12.26c0,4.5.93,5.43,5.58,5.43h28.83c4.65,0,5.58-.93,5.58-5.43v-17.69Z"/>
  <path class="cls-1" d="m432.55,171.54c-11.63,0-17.05-2.64-17.05-16.44V47.43h15.97v103.63c0,4.5.93,5.43,5.58,5.43h12.09v15.05h-16.59Z"/>
  <path class="cls-1" d="m472.81,171.54v31.03h-15.97v-99.91c0-13.81,5.43-16.44,17.05-16.44h37.67c11.63,0,17.05,2.64,17.05,16.44v52.44c0,13.81-5.43,16.44-17.05,16.44h-38.76Zm40-64.69c0-4.5-.93-5.43-5.58-5.43h-28.83c-4.65,0-5.58.93-5.58,5.43v49.64h34.41c4.65,0,5.58-.93,5.58-5.43v-44.21Z"/>
  <path class="cls-1" d="m556.12,202.57l9.15-30.87-31.01-85.48h16.9l21.86,60.66,18.91-60.66h15.97l-37.83,116.35h-13.95Z"/>
</svg>