<svg width="109" height="30" viewBox="0 0 109 30" fill="none" xmlns="http://www.w3.org/2000/svg">
<path d="M3.25674 23.7063C1.03528 23.7063 0 23.202 0 20.566V10.5494C0 7.91154 1.03528 7.40918 3.25674 7.40918H10.4521C12.6736 7.40918 13.7089 7.91345 13.7089 10.5494V14.2531C13.7089 16.891 12.6717 17.3933 10.4521 17.3933H3.05045V19.7943C3.05045 20.801 3.31595 20.8315 4.62056 20.8315H13.0594V23.7063H3.25865H3.25674ZM10.689 11.3497C10.689 10.4902 10.5113 10.3126 9.62315 10.3126H4.11629C3.22809 10.3126 3.05045 10.4902 3.05045 11.3497V14.5205H9.62315C10.5113 14.5205 10.689 14.3429 10.689 13.4833V11.3497Z" fill="#7F56D9"/>
<path d="M25.8706 23.7063V11.3497C25.8706 10.4902 25.693 10.3126 24.8048 10.3126H19.2979C18.4097 10.3126 18.2321 10.4902 18.2321 11.3497V23.7063H15.1816V10.5494C15.1816 7.91154 16.2188 7.40918 18.4384 7.40918H25.6338C27.8552 7.40918 28.8905 7.91345 28.8905 10.5494V23.7063H25.8706Z" fill="#7F56D9"/>
<path d="M36.3171 23.7065C34.0957 23.7065 33.0604 23.2022 33.0604 20.5663V10.3128H30.3652V7.40941H33.0604V1.30469H36.1109V7.40941H39.486V10.3128H36.1109V19.7946C36.1109 20.6541 36.2885 20.8318 37.1767 20.8318H39.486V23.7065H36.3171Z" fill="#7F56D9"/>
<path d="M51.646 23.7064V11.3499C51.646 10.4903 51.4684 10.3127 50.5802 10.3127H44.0075V23.7064H40.957V0H44.0075V7.40933H51.4092C53.6306 7.40933 54.6659 7.9136 54.6659 10.5496V23.7064H51.646Z" fill="#7F56D9"/>
<path d="M59.3974 23.7063C57.1759 23.7063 56.1406 23.202 56.1406 20.5661V16.6542C56.1406 14.0163 57.1778 13.5139 59.3974 13.5139H66.7991V11.3517C66.7991 10.4921 66.6214 10.3145 65.7332 10.3145H56.4653V7.41113H66.5928C68.8142 7.41113 69.8495 7.9154 69.8495 10.5514V20.568C69.8495 23.2059 68.8123 23.7082 66.5928 23.7082H59.3974V23.7063ZM66.7991 16.4173H60.2264C59.3382 16.4173 59.1605 16.595 59.1605 17.4545V19.7963C59.1605 20.6559 59.3382 20.8335 60.2264 20.8335H65.7332C66.6214 20.8335 66.7991 20.6559 66.7991 19.7963V16.4173Z" fill="#7F56D9"/>
<path d="M74.579 23.7064C72.3576 23.7064 71.3223 23.2021 71.3223 20.5662V0H74.3727V19.7945C74.3727 20.654 74.5504 20.8317 75.4386 20.8317H77.7479V23.7064H74.579Z" fill="#7F56D9"/>
<path d="M82.2692 23.7063V29.6333H79.2188V10.5494C79.2188 7.91154 80.2559 7.40918 82.4755 7.40918H89.6709C91.8923 7.40918 92.9276 7.91345 92.9276 10.5494V20.566C92.9276 23.2039 91.8904 23.7063 89.6709 23.7063H82.2673H82.2692ZM89.9096 11.3497C89.9096 10.4902 89.732 10.3126 88.8438 10.3126H83.337C82.4488 10.3126 82.2711 10.4902 82.2711 11.3497V20.8315H88.8438C89.732 20.8315 89.9096 20.6539 89.9096 19.7943V11.3497Z" fill="#7F56D9"/>
<path d="M98.1814 29.6333L99.9291 23.7368L94.0059 7.40918H97.234L101.409 18.9959L105.021 7.40918H108.072L100.846 29.6333H98.1814Z" fill="#7F56D9"/>
</svg>
