<svg width="109" height="30" viewBox="0 0 109 30" fill="none" xmlns="http://www.w3.org/2000/svg">
<path d="M3.25674 23.7063C1.03528 23.7063 0 23.202 0 20.566V10.5494C0 7.91154 1.03528 7.40918 3.25674 7.40918H10.4521C12.6736 7.40918 13.7089 7.91345 13.7089 10.5494V14.2531C13.7089 16.891 12.6717 17.3933 10.4521 17.3933H3.05045V19.7943C3.05045 20.801 3.31595 20.8315 4.62056 20.8315H13.0594V23.7063H3.25865H3.25674ZM10.689 11.3497C10.689 10.4902 10.5113 10.3126 9.62315 10.3126H4.11629C3.22809 10.3126 3.05045 10.4902 3.05045 11.3497V14.5205H9.62315C10.5113 14.5205 10.689 14.3429 10.689 13.4833V11.3497Z" fill="#7F56D9"/>
<path d="M25.8706 23.7063V11.3497C25.8706 10.4902 25.693 10.3126 24.8048 10.3126H19.2979C18.4097 10.3126 18.2321 10.4902 18.2321 11.3497V23.7063H15.1816V10.5494C15.1816 7.91154 16.2188 7.40918 18.4384 7.40918H25.6338C27.8552 7.40918 28.8905 7.91345 28.8905 10.5494V23.7063H25.8706Z" fill="#7F56D9"/>
<path d="M36.317 23.7065C34.0955 23.7065 33.0602 23.2022 33.0602 20.5663V10.3128H30.3651V7.40941H33.0602V1.30469H36.1107V7.40941H39.4859V10.3128H36.1107V19.7946C36.1107 20.6541 36.2883 20.8318 37.1765 20.8318H39.4859V23.7065H36.317Z" fill="#7F56D9"/>
<path d="M51.6457 23.7064V11.3499C51.6457 10.4903 51.4681 10.3127 50.5799 10.3127H44.0072V23.7064H40.9567V0H44.0072V7.40933H51.4088C53.6303 7.40933 54.6656 7.9136 54.6656 10.5496V23.7064H51.6457Z" fill="#7F56D9"/>
<path d="M59.3969 23.7063C57.1754 23.7063 56.1401 23.202 56.1401 20.5661V16.6542C56.1401 14.0163 57.1773 13.5139 59.3969 13.5139H66.7986V11.3517C66.7986 10.4921 66.6209 10.3145 65.7327 10.3145H56.4649V7.41113H66.5923C68.8137 7.41113 69.849 7.9154 69.849 10.5514V20.568C69.849 23.2059 68.8118 23.7082 66.5923 23.7082H59.3969V23.7063ZM66.7986 16.4173H60.2259C59.3377 16.4173 59.16 16.595 59.16 17.4545V19.7963C59.16 20.6559 59.3377 20.8335 60.2259 20.8335H65.7327C66.6209 20.8335 66.7986 20.6559 66.7986 19.7963V16.4173Z" fill="#7F56D9"/>
<path d="M74.5784 23.7064C72.3569 23.7064 71.3216 23.2021 71.3216 20.5662V0H74.3721V19.7945C74.3721 20.654 74.5497 20.8317 75.4379 20.8317H77.7472V23.7064H74.5784Z" fill="#7F56D9"/>
<path d="M82.2685 23.7063V29.6333H79.2181V10.5494C79.2181 7.91154 80.2553 7.40918 82.4748 7.40918H89.6702C91.8917 7.40918 92.927 7.91345 92.927 10.5494V20.566C92.927 23.2039 91.8898 23.7063 89.6702 23.7063H82.2666H82.2685ZM89.909 11.3497C89.909 10.4902 89.7314 10.3126 88.8432 10.3126H83.3363C82.4481 10.3126 82.2705 10.4902 82.2705 11.3497V20.8315H88.8432C89.7314 20.8315 89.909 20.6539 89.909 19.7943V11.3497Z" fill="#7F56D9"/>
<path d="M98.1817 29.6333L99.9294 23.7368L94.0062 7.40918H97.2343L101.41 18.9959L105.022 7.40918H108.072L100.846 29.6333H98.1817Z" fill="#7F56D9"/>
</svg>
