<svg width="48" height="48" viewBox="0 0 48 48" fill="none" xmlns="http://www.w3.org/2000/svg">
<path d="M0 24C0 10.7452 10.7452 0 24 0C37.2548 0 48 10.7452 48 24C48 37.2548 37.2548 48 24 48C10.7452 48 0 37.2548 0 24Z" fill="#DCFAE6"/>
<path d="M34 19L26.1314 26.8686C25.7354 27.2646 25.5373 27.4627 25.309 27.5368C25.1082 27.6021 24.8918 27.6021 24.691 27.5368C24.4627 27.4627 24.2646 27.2646 23.8686 26.8686L21.1314 24.1314C20.7354 23.7354 20.5373 23.5373 20.309 23.4632C20.1082 23.3979 19.8918 23.3979 19.691 23.4632C19.4627 23.5373 19.2646 23.7354 18.8686 24.1314L14 29M34 19H27M34 19V26" stroke="#079455" stroke-width="2" stroke-linecap="round" stroke-linejoin="round"/>
</svg>
