<svg width="137" height="17" viewBox="0 0 137 17" fill="none" xmlns="http://www.w3.org/2000/svg">
<path d="M0.76 1.84H5.08C5.66667 1.84 6.24 1.9 6.8 2.02C7.36 2.14 7.86 2.34 8.3 2.62C8.74 2.88667 9.09333 3.24 9.36 3.68C9.64 4.12 9.78 4.66667 9.78 5.32C9.78 6.14667 9.55333 6.83333 9.1 7.38C8.66 7.91333 8.06 8.29333 7.3 8.52V8.56C7.75333 8.6 8.17333 8.72 8.56 8.92C8.96 9.10667 9.3 9.35333 9.58 9.66C9.87333 9.96667 10.1 10.3267 10.26 10.74C10.42 11.14 10.5 11.5733 10.5 12.04C10.5 12.8267 10.3333 13.4733 10 13.98C9.68 14.4867 9.25333 14.8933 8.72 15.2C8.2 15.4933 7.60667 15.7 6.94 15.82C6.28667 15.94 5.63333 16 4.98 16H0.76V1.84ZM2.44 7.84H4.76C5.16 7.84 5.54667 7.81333 5.92 7.76C6.30667 7.70667 6.65333 7.6 6.96 7.44C7.26667 7.26667 7.51333 7.03333 7.7 6.74C7.88667 6.43333 7.98 6.03333 7.98 5.54C7.98 5.1 7.89333 4.74667 7.72 4.48C7.54667 4.2 7.31333 3.98 7.02 3.82C6.74 3.66 6.41333 3.55333 6.04 3.5C5.68 3.43333 5.31333 3.4 4.94 3.4H2.44V7.84ZM2.44 14.44H5.28C5.69333 14.44 6.1 14.4 6.5 14.32C6.91333 14.2267 7.28 14.0867 7.6 13.9C7.93333 13.7 8.2 13.4467 8.4 13.14C8.6 12.82 8.7 12.4333 8.7 11.98C8.7 11.4867 8.6 11.0733 8.4 10.74C8.21333 10.4067 7.96 10.14 7.64 9.94C7.33333 9.74 6.97333 9.6 6.56 9.52C6.16 9.44 5.74667 9.4 5.32 9.4H2.44V14.44ZM13.2177 0.879999H14.7777V16H13.2177V0.879999ZM26.0423 13.78C26.0423 14.2067 26.0557 14.6067 26.0823 14.98C26.109 15.3533 26.1223 15.6933 26.1223 16H24.6423C24.6423 15.7467 24.6357 15.4933 24.6223 15.24C24.609 14.9867 24.6023 14.7267 24.6023 14.46H24.5623C24.4557 14.6867 24.3023 14.9067 24.1023 15.12C23.9157 15.3333 23.689 15.5267 23.4223 15.7C23.1557 15.86 22.8557 15.9867 22.5223 16.08C22.189 16.1867 21.829 16.24 21.4423 16.24C20.829 16.24 20.2957 16.1467 19.8423 15.96C19.4023 15.7733 19.0357 15.5133 18.7423 15.18C18.449 14.8467 18.229 14.4467 18.0823 13.98C17.949 13.5 17.8823 12.98 17.8823 12.42V6.64H19.4423V12.26C19.4423 13.0467 19.6157 13.6667 19.9623 14.12C20.309 14.5733 20.849 14.8 21.5823 14.8C22.089 14.8 22.5223 14.7133 22.8823 14.54C23.2557 14.3667 23.5557 14.12 23.7823 13.8C24.0223 13.48 24.1957 13.1 24.3023 12.66C24.4223 12.22 24.4823 11.7333 24.4823 11.2V6.64H26.0423V13.78ZM37.3556 14.3C36.7956 15.02 36.1823 15.5267 35.5156 15.82C34.849 16.1 34.0756 16.24 33.1956 16.24C32.4623 16.24 31.8023 16.1133 31.2156 15.86C30.629 15.5933 30.129 15.24 29.7156 14.8C29.3156 14.36 29.0023 13.84 28.7756 13.24C28.5623 12.64 28.4556 12 28.4556 11.32C28.4556 10.6 28.5756 9.94 28.8156 9.34C29.0556 8.72667 29.389 8.20667 29.8156 7.78C30.2423 7.34 30.749 7 31.3356 6.76C31.9223 6.52 32.5623 6.4 33.2556 6.4C33.909 6.4 34.509 6.51333 35.0556 6.74C35.6023 6.95333 36.069 7.27333 36.4556 7.7C36.8556 8.11333 37.1623 8.62667 37.3756 9.24C37.589 9.84 37.6956 10.5267 37.6956 11.3V11.8H30.1356C30.1623 12.2 30.2556 12.5867 30.4156 12.96C30.589 13.32 30.809 13.64 31.0756 13.92C31.3423 14.1867 31.6556 14.4 32.0156 14.56C32.3756 14.72 32.769 14.8 33.1956 14.8C33.8756 14.8 34.449 14.68 34.9156 14.44C35.3823 14.2 35.8023 13.8467 36.1756 13.38L37.3556 14.3ZM36.0156 10.48C35.989 9.68 35.729 9.04 35.2356 8.56C34.7423 8.08 34.0623 7.84 33.1956 7.84C32.329 7.84 31.629 8.08 31.0956 8.56C30.5623 9.04 30.2423 9.68 30.1356 10.48H36.0156ZM38.7489 1.84H40.6089L43.8289 13.6H43.8689L47.3489 1.84H49.2289L52.6889 13.6H52.7289L56.0089 1.84H57.7689L53.6089 16H51.7889L48.2889 4H48.2489L44.7289 16H42.8889L38.7489 1.84ZM58.5045 7.84C58.9845 7.34667 59.5512 6.98667 60.2045 6.76C60.8712 6.52 61.5445 6.4 62.2245 6.4C63.6112 6.4 64.6112 6.72667 65.2245 7.38C65.8379 8.03333 66.1445 9.02667 66.1445 10.36V14.38C66.1445 14.6467 66.1579 14.9267 66.1845 15.22C66.2112 15.5 66.2445 15.76 66.2845 16H64.7845C64.7312 15.7867 64.6979 15.5533 64.6845 15.3C64.6845 15.0333 64.6845 14.8 64.6845 14.6H64.6445C64.3379 15.08 63.9245 15.4733 63.4045 15.78C62.8979 16.0867 62.2845 16.24 61.5645 16.24C61.0845 16.24 60.6312 16.18 60.2045 16.06C59.7912 15.94 59.4245 15.7667 59.1045 15.54C58.7979 15.3 58.5512 15.0067 58.3645 14.66C58.1779 14.3133 58.0845 13.9133 58.0845 13.46C58.0845 12.6867 58.2845 12.08 58.6845 11.64C59.0845 11.2 59.5779 10.8733 60.1645 10.66C60.7645 10.4467 61.4045 10.3133 62.0845 10.26C62.7779 10.2067 63.4112 10.18 63.9845 10.18H64.5845V9.9C64.5845 9.22 64.3779 8.70667 63.9645 8.36C63.5645 8.01333 62.9979 7.84 62.2645 7.84C61.7579 7.84 61.2579 7.92667 60.7645 8.1C60.2845 8.26 59.8579 8.51333 59.4845 8.86L58.5045 7.84ZM63.0245 11.5C62.0245 11.5 61.2312 11.64 60.6445 11.92C60.0579 12.2 59.7645 12.66 59.7645 13.3C59.7645 13.8867 59.9579 14.3067 60.3445 14.56C60.7445 14.8 61.2379 14.92 61.8245 14.92C62.2779 14.92 62.6712 14.8467 63.0045 14.7C63.3512 14.54 63.6379 14.3333 63.8645 14.08C64.0912 13.8267 64.2645 13.5333 64.3845 13.2C64.5045 12.8533 64.5712 12.4867 64.5845 12.1V11.5H63.0245ZM73.2556 16H71.5356L67.7156 6.64H69.5356L72.4556 13.98H72.4956L75.2756 6.64H76.9556L73.2556 16ZM87.0041 14.3C86.4441 15.02 85.8307 15.5267 85.1641 15.82C84.4974 16.1 83.7241 16.24 82.8441 16.24C82.1107 16.24 81.4507 16.1133 80.8641 15.86C80.2774 15.5933 79.7774 15.24 79.3641 14.8C78.9641 14.36 78.6507 13.84 78.4241 13.24C78.2107 12.64 78.1041 12 78.1041 11.32C78.1041 10.6 78.2241 9.94 78.4641 9.34C78.7041 8.72667 79.0374 8.20667 79.4641 7.78C79.8907 7.34 80.3974 7 80.9841 6.76C81.5707 6.52 82.2107 6.4 82.9041 6.4C83.5574 6.4 84.1574 6.51333 84.7041 6.74C85.2507 6.95333 85.7174 7.27333 86.1041 7.7C86.5041 8.11333 86.8107 8.62667 87.0241 9.24C87.2374 9.84 87.3441 10.5267 87.3441 11.3V11.8H79.7841C79.8107 12.2 79.9041 12.5867 80.0641 12.96C80.2374 13.32 80.4574 13.64 80.7241 13.92C80.9907 14.1867 81.3041 14.4 81.6641 14.56C82.0241 14.72 82.4174 14.8 82.8441 14.8C83.5241 14.8 84.0974 14.68 84.5641 14.44C85.0307 14.2 85.4507 13.8467 85.8241 13.38L87.0041 14.3ZM85.6641 10.48C85.6374 9.68 85.3774 9.04 84.8841 8.56C84.3907 8.08 83.7107 7.84 82.8441 7.84C81.9774 7.84 81.2774 8.08 80.7441 8.56C80.2107 9.04 79.8907 9.68 79.7841 10.48H85.6641Z" fill="#344054"/>
<path d="M95.6038 1.84H97.2838V7.84H104.844V1.84H106.524V16H104.844V9.4H97.2838V16H95.6038V1.84ZM110.037 1.84H113.657C114.337 1.84 115.011 1.88 115.677 1.96C116.357 2.04 116.964 2.21333 117.497 2.48C118.031 2.74667 118.464 3.14 118.797 3.66C119.131 4.16667 119.297 4.86 119.297 5.74C119.297 6.78 118.984 7.62 118.357 8.26C117.731 8.9 116.864 9.30667 115.757 9.48L119.777 16H117.717L113.877 9.64H111.717V16H110.037V1.84ZM111.717 8.08H113.217C113.684 8.08 114.164 8.06667 114.657 8.04C115.164 8.01333 115.624 7.92667 116.037 7.78C116.464 7.63333 116.811 7.40667 117.077 7.1C117.357 6.78 117.497 6.32667 117.497 5.74C117.497 5.23333 117.397 4.82667 117.197 4.52C116.997 4.21333 116.731 3.98 116.397 3.82C116.077 3.64667 115.711 3.53333 115.297 3.48C114.897 3.42667 114.491 3.4 114.077 3.4H111.717V8.08ZM122.264 1.84H124.764L129.564 12.94H129.604L134.444 1.84H136.884V16H135.204V4.12H135.164L130.084 16H129.064L123.984 4.12H123.944V16H122.264V1.84Z" fill="#7F56D9"/>
</svg>
