<svg width="256" height="118" viewBox="0 0 256 118" fill="none" xmlns="http://www.w3.org/2000/svg">
<rect x="0.390244" y="0.390244" width="255.22" height="117.22" rx="7.41463" fill="white"/>
<rect x="0.390244" y="0.390244" width="255.22" height="117.22" rx="7.41463" stroke="#EBEBEB" stroke-width="0.780488"/>
<rect x="18" y="19" width="220" height="20" rx="3.12195" fill="#F3F3F3"/>
<rect x="18" y="49" width="220" height="20" rx="3.12195" fill="#F3F3F3"/>
<rect x="18" y="79" width="220" height="20" rx="3.12195" fill="#F3F3F3"/>
<path d="M211 29C211 18.5066 219.507 10 230 10C240.493 10 249 18.5066 249 29C249 39.4934 240.493 48 230 48C219.507 48 211 39.4934 211 29Z" fill="#F2F4F7"/>
<path d="M211 29C211 18.5066 219.507 10 230 10C240.493 10 249 18.5066 249 29C249 39.4934 240.493 48 230 48C219.507 48 211 39.4934 211 29Z" stroke="#D0D5DD" stroke-width="2"/>
<path fill-rule="evenodd" clip-rule="evenodd" d="M238.495 21.3168L226.561 32.8334L223.395 29.4501C222.811 28.9001 221.895 28.8668 221.228 29.3334C220.578 29.8168 220.395 30.6668 220.795 31.3501L224.545 37.4501C224.911 38.0168 225.545 38.3668 226.261 38.3668C226.945 38.3668 227.595 38.0168 227.961 37.4501C228.561 36.6668 240.011 23.0168 240.011 23.0168C241.511 21.4834 239.695 20.1334 238.495 21.3001V21.3168Z" fill="white"/>
</svg>
