<svg width="148" height="148" viewBox="0 0 148 148" fill="none" xmlns="http://www.w3.org/2000/svg">
<rect width="148" height="148" rx="74" fill="#F6F8FA"/>
<path d="M130.236 109.162C130.236 109.162 124.23 107.373 122.427 113.353C124.23 107.373 118.236 105.543 118.236 105.543C118.236 105.543 124.243 107.332 126.046 101.353C124.243 107.332 130.236 109.162 130.236 109.162Z" fill="white" stroke="#868C98" stroke-linecap="round" stroke-linejoin="round"/>
<path d="M84.3665 35.8069C85.9362 36.0682 87.4205 35.0076 87.6818 33.4379C87.9432 31.8682 86.8825 30.3839 85.3129 30.1226C83.7432 29.8613 82.2589 30.9219 81.9975 32.4916C81.7362 34.0612 82.7968 35.5456 84.3665 35.8069Z" fill="#868C98" stroke="#868C98" stroke-linecap="round" stroke-linejoin="round"/>
<path d="M123.372 73.8753C124.942 74.1366 126.426 73.076 126.688 71.5063C126.949 69.9366 125.888 68.4523 124.319 68.191C122.749 67.9296 121.265 68.9902 121.003 70.5599C120.742 72.1296 121.803 73.6139 123.372 73.8753Z" fill="#868C98" stroke="#868C98" stroke-linecap="round" stroke-linejoin="round"/>
<path d="M83.1406 98.7557C109.312 77.9368 100.039 47.4345 100.039 47.4345L111.514 51.9549C111.514 51.9549 101.722 85.8747 103.679 115.697L83.1406 98.7557Z" fill="#CDD0D5" stroke="#868C98" stroke-linecap="round" stroke-linejoin="round"/>
<path d="M106.578 48.7233C106.578 48.7233 87.8177 33.5797 67.8508 63.5575L81.9547 61.3733L87.3856 55.1125L92.1999 58.1527C92.1999 58.1527 101.882 56.8089 106.578 48.7233Z" fill="white" stroke="#868C98" stroke-linecap="round" stroke-linejoin="round"/>
<path d="M107.287 48.4907C107.287 48.4907 114.781 25.575 79.6661 17.5558L86.7166 29.9647L94.4981 32.8182L93.3658 38.3984C93.3658 38.3984 98.0605 46.9722 107.287 48.4907Z" fill="#E2E4E9" stroke="#868C98" stroke-linecap="round" stroke-linejoin="round"/>
<path d="M106.523 48.6466C106.523 48.6466 129.178 40.3981 138.355 75.228L125.72 68.5921L122.61 60.9094L117.071 62.2258C117.071 62.2258 108.346 57.8175 106.523 48.6466Z" fill="white" stroke="#868C98" stroke-linecap="round" stroke-linejoin="round"/>
<path d="M107.101 47.2997C107.101 47.2997 109.186 23.2802 144.635 29.6622L133.286 38.3159L125.008 37.892L123.864 43.4696C123.864 43.4696 116.185 49.5181 107.101 47.2997Z" fill="#E2E4E9" stroke="#868C98" stroke-linecap="round" stroke-linejoin="round"/>
<path d="M69.0721 117.999C68.901 117.999 68.7268 117.978 68.5535 117.937C67.3664 117.652 66.6356 116.459 66.9212 115.272L74.1581 85.1765C74.4437 83.991 75.6414 83.2571 76.8234 83.5449C78.0104 83.8298 78.7412 85.0224 78.4556 86.2095L71.2187 116.305C70.9748 117.318 70.0699 117.999 69.0721 117.999Z" fill="#CDD0D5" stroke="#868C98" stroke-linecap="round" stroke-linejoin="round"/>
<path d="M104 122.121C103.383 122.121 102.769 121.863 102.332 121.361L57.0286 69.2883C56.2279 68.3675 56.3251 66.9719 57.2459 66.1705C58.1645 65.3691 59.5615 65.467 60.3636 66.3877L105.667 118.46C106.468 119.381 106.37 120.777 105.45 121.578C105.032 121.942 104.515 122.121 104 122.121Z" fill="#E2E4E9" stroke="#868C98" stroke-linecap="round" stroke-linejoin="round"/>
<path d="M71.9045 116.268C71.9045 116.268 56.5295 121.465 42.9803 101.083C36.9245 91.9728 31.9949 77.6391 30.7576 73.882C30.5663 73.3009 30.813 72.6724 31.3547 72.388C32.9664 71.5422 37.0751 69.9729 46.204 69.2483C55.2685 68.5289 59.1694 68.8263 60.679 69.0629C61.1779 69.1412 61.5744 69.5126 61.6933 70.0036C62.3708 72.7994 65.1499 82.8479 71.8443 91.3165C82.1766 104.388 97.899 104.014 102.472 103.593C103.657 103.484 104.818 104.246 104.999 105.422C105.111 106.155 104.866 107.018 103.761 107.879C100.921 110.094 71.9045 116.268 71.9045 116.268Z" fill="white" stroke="#868C98" stroke-linecap="round" stroke-linejoin="round"/>
<path d="M76.3095 135.057C75.6578 135.057 75.0132 134.771 74.5766 134.221L26.6151 73.7535C25.8569 72.7967 26.0173 71.4069 26.9733 70.6487C27.9294 69.8891 29.3184 70.0487 30.0782 71.0055L78.0396 131.473C78.7978 132.43 78.6374 133.82 77.6814 134.578C77.2749 134.901 76.7908 135.057 76.3095 135.057Z" fill="#E2E4E9" stroke="#868C98" stroke-linecap="round" stroke-linejoin="round"/>
<path d="M30.2691 125.947C29.2605 125.947 28.3491 125.252 28.116 124.226C27.8455 123.037 28.5915 121.853 29.7814 121.582L74.5035 111.417C75.6897 111.148 76.8774 111.892 77.1486 113.083C77.4192 114.273 76.6731 115.457 75.4832 115.728L30.7612 125.893C30.5965 125.93 30.4318 125.947 30.2691 125.947Z" fill="#CDD0D5" stroke="#868C98" stroke-linecap="round" stroke-linejoin="round"/>
<path d="M38.9745 125.135C38.8033 125.135 38.6292 125.114 38.4558 125.073C37.2688 124.788 36.538 123.595 36.8236 122.408L44.0605 92.3124C44.3461 91.1254 45.5438 90.3988 46.7257 90.6809C47.9127 90.9658 48.6435 92.1584 48.358 93.3454L41.121 123.441C40.8771 124.454 39.9723 125.135 38.9745 125.135Z" fill="#CDD0D5" stroke="#868C98" stroke-linecap="round" stroke-linejoin="round"/>
<circle cx="37.5629" cy="32.6303" r="14.0922" fill="white" stroke="#868C98" stroke-linecap="round" stroke-linejoin="round"/>
<path d="M37.5605 14.0815V7.94043" stroke="#868C98" stroke-linecap="round" stroke-linejoin="round"/>
<path d="M37.5605 57.3178V51.1768" stroke="#868C98" stroke-linecap="round" stroke-linejoin="round"/>
<path d="M56.1109 32.627L62.252 32.627" stroke="#868C98" stroke-linecap="round" stroke-linejoin="round"/>
<path d="M12.8726 32.627L19.0137 32.627" stroke="#868C98" stroke-linecap="round" stroke-linejoin="round"/>
<path d="M50.6772 19.5133L55.0195 15.1709" stroke="#868C98" stroke-linecap="round" stroke-linejoin="round"/>
<path d="M20.1049 50.0865L24.4473 45.7441" stroke="#868C98" stroke-linecap="round" stroke-linejoin="round"/>
<path d="M50.6791 45.7436L55.0215 50.0859" stroke="#868C98" stroke-linecap="round" stroke-linejoin="round"/>
<path d="M20.1049 15.1723L24.4473 19.5146" stroke="#868C98" stroke-linecap="round" stroke-linejoin="round"/>
<path d="M29.2578 28.2598L31.9561 30.9584L29.2578 33.6567" stroke="#868C98" stroke-linecap="round" stroke-linejoin="round"/>
<path d="M45.8672 28.2588L43.1689 30.9574L45.8672 33.6557" stroke="#868C98" stroke-linecap="round" stroke-linejoin="round"/>
<path d="M42.1019 37.9941H33.0273" stroke="#868C98" stroke-linecap="round" stroke-linejoin="round"/>
</svg>
