<svg width="148" height="148" viewBox="0 0 148 148" fill="none" xmlns="http://www.w3.org/2000/svg">
<rect width="148" height="148" rx="74" fill="#F6F8FA"/>
<path d="M42.5171 33.5221C42.4184 33.9016 42.2459 34.241 41.9861 34.5658C41.5986 35.0499 40.9968 35.4966 40.201 35.8196C39.4079 36.1429 38.4311 36.3361 37.3636 36.3354C36.592 36.3355 35.7739 36.2357 34.9432 36.0215C33.1793 35.5694 31.7162 34.6816 30.7659 33.676C30.0191 32.8891 28.7759 32.8566 27.989 33.6035C27.2022 34.3503 27.1697 35.5935 27.9165 36.3803C29.4363 37.9774 31.5261 39.1948 33.9625 39.8256C35.1105 40.1215 36.255 40.2637 37.3636 40.2638C39.4073 40.2614 41.3357 39.7865 42.9417 38.8337C43.7431 38.3564 44.463 37.7548 45.0483 37.0267C45.6334 36.3001 46.0795 35.4435 46.3211 34.5029C46.592 33.4524 45.9599 32.3813 44.9094 32.1105C43.859 31.8397 42.7879 32.4717 42.5171 33.5221Z" fill="#868C98"/>
<path d="M37.8412 51.6608C37.7425 52.0403 37.57 52.3796 37.3102 52.7045C36.9227 53.1885 36.3209 53.6352 35.5251 53.9582C34.7321 54.2815 33.7552 54.4747 32.6878 54.474C31.9162 54.4741 31.098 54.3744 30.2674 54.1601C28.5035 53.708 27.0405 52.8203 26.0901 51.8147C25.3433 51.0278 24.1001 50.9953 23.3132 51.7421C22.5264 52.4889 22.4939 53.7322 23.2407 54.519C24.7605 56.1161 26.8503 57.3335 29.2867 57.9643C30.4347 58.2602 31.5792 58.4024 32.6878 58.4025C34.7315 58.4001 36.6599 57.9252 38.266 56.9724C39.0673 56.4951 39.7872 55.8935 40.3725 55.1653C40.9576 54.4388 41.4037 53.5822 41.6454 52.6416C41.9162 51.5911 41.2841 50.52 40.2337 50.2492C39.1832 49.9784 38.112 50.6103 37.8412 51.6608Z" fill="#868C98"/>
<path d="M32.8784 70.9069C32.7797 71.2864 32.6072 71.6257 32.3474 71.9505C31.9599 72.4346 31.3581 72.8813 30.5623 73.2043C29.7693 73.5276 28.7924 73.7208 27.7249 73.7201C26.9534 73.7202 26.1352 73.6205 25.3045 73.4062C23.5406 72.9541 22.0776 72.0664 21.1272 71.0608C20.3804 70.2739 19.1372 70.2414 18.3503 70.9882C17.5635 71.735 17.531 72.9783 18.2778 73.7651C19.7977 75.3622 21.8874 76.5796 24.3238 77.2104C25.4718 77.5063 26.6163 77.6485 27.7249 77.6486C29.7686 77.6462 31.697 77.1713 33.3031 76.2185C34.1044 75.7412 34.8243 75.1396 35.4096 74.4114C35.9947 73.6849 36.4408 72.8283 36.6825 71.8877C36.9533 70.8372 36.3212 69.7661 35.2708 69.4953C34.2203 69.2245 33.1492 69.8564 32.8784 70.9069Z" fill="#868C98"/>
<path d="M120.128 45.5722L54.4085 28.4783C50.1492 27.3704 45.7982 29.9251 44.6904 34.1844L27.5964 99.9035C26.4886 104.163 29.0433 108.514 33.3026 109.622L99.0217 126.716C103.281 127.823 107.632 125.269 108.74 121.009L125.834 55.2903C126.942 51.031 124.387 46.6801 120.128 45.5722Z" fill="#E2E4E9" stroke="#868C98" stroke-miterlimit="10" stroke-linejoin="round"/>
<path d="M118.996 46.35L103.321 106.618C101.298 113.079 94.8976 117.385 87.9311 116.544C87.4764 116.489 87.0272 116.414 86.5875 116.318L85.4908 116.035C85.4615 116.028 85.4321 116.02 85.4039 116.009C78.901 114.011 74.561 107.588 75.3997 100.594C76.3465 92.7311 83.4892 87.1214 91.3535 88.064L30.533 80.0721L30.5288 80.071C30.1865 79.9962 29.8357 79.937 29.4805 79.8945C27.2859 79.6279 25.1657 80.059 23.3438 81.0134L37.8509 25.2431C38.9579 20.9838 43.3091 18.4269 47.5674 19.5381L113.287 36.6325C117.546 37.7395 120.103 42.0906 118.996 46.35Z" fill="white" stroke="#868C98" stroke-miterlimit="10" stroke-linejoin="round"/>
<path d="M85.4035 116.008L27.2817 100.89C27.1758 100.885 27.071 100.876 26.9631 100.862C21.1689 100.167 17.0427 94.9069 17.7362 89.1168C18.1673 85.5225 20.3573 82.5691 23.3433 81.013C25.1653 80.0585 27.2854 79.6274 29.4801 79.8941C29.8353 79.9365 30.1861 79.9958 30.5284 80.0706L30.5326 80.0716L91.3531 88.0636C83.4888 87.121 76.3461 92.7306 75.3993 100.594C74.5606 107.588 78.9005 114.01 85.4035 116.008Z" fill="#CDD0D5" stroke="#868C98" stroke-miterlimit="10" stroke-linejoin="round"/>
<path d="M85.4922 116.035L86.5889 116.318C86.2163 116.24 85.852 116.146 85.4922 116.035Z" stroke="#868C98" stroke-miterlimit="10" stroke-linejoin="round"/>
<path d="M103.32 106.618L103.686 105.217C103.585 105.695 103.465 106.16 103.32 106.618Z" stroke="#868C98" stroke-miterlimit="10" stroke-linejoin="round"/>
<path d="M30.7666 33.6764C30.3108 33.1966 29.9726 32.6937 29.7552 32.2111C29.5373 31.727 29.4384 31.2683 29.4382 30.8398C29.4383 30.6132 29.4655 30.3931 29.5223 30.1724C29.621 29.7929 29.7935 29.4535 30.0533 29.1287C30.4408 28.6446 31.0426 28.1979 31.8384 27.8749C32.6315 27.5516 33.6083 27.3584 34.6758 27.3591C35.4473 27.359 36.2655 27.4588 37.0962 27.673C38.822 28.1156 40.26 28.9744 41.2111 29.9538C41.6878 30.4422 42.0423 30.9568 42.2699 31.4512C42.4983 31.9471 42.6017 32.4171 42.6019 32.8552C42.6018 33.0818 42.5746 33.3018 42.5178 33.5226C42.2469 34.5731 42.879 35.6442 43.9295 35.915C44.98 36.1858 46.0511 35.5538 46.3219 34.5033C46.4625 33.9581 46.5305 33.4035 46.5304 32.8551C46.5306 31.7893 46.2753 30.7542 45.8371 29.8054C45.1772 28.38 44.1171 27.1356 42.7924 26.1233C41.4657 25.1119 39.8652 24.3305 38.077 23.8689C36.929 23.573 35.7844 23.4308 34.6759 23.4307C32.6322 23.433 30.7038 23.908 29.0977 24.8608C28.2964 25.3381 27.5764 25.9397 26.9911 26.6678C26.4061 27.3944 25.96 28.251 25.7183 29.1916C25.5776 29.7367 25.5097 30.2913 25.5098 30.8397C25.5096 31.8819 25.7537 32.8951 26.1743 33.8264C26.5956 34.7592 27.1913 35.6154 27.9172 36.3807C28.664 37.1676 29.9073 37.2 30.6941 36.4532C31.481 35.7064 31.5134 34.4633 30.7666 33.6764Z" fill="#868C98"/>
<path d="M26.0889 51.815C25.6331 51.3352 25.2949 50.8324 25.0776 50.3497C24.8596 49.8656 24.7607 49.4069 24.7605 48.9784C24.7606 48.7518 24.7879 48.5318 24.8446 48.311C24.9434 47.9315 25.1158 47.5921 25.3756 47.2673C25.7631 46.7832 26.3649 46.3365 27.1607 46.0135C27.9538 45.6903 28.9306 45.497 29.9981 45.4977C30.7697 45.4976 31.5879 45.5974 32.4185 45.8117C34.1443 46.2542 35.5823 47.1131 36.5334 48.0924C37.0101 48.5808 37.3646 49.0954 37.5922 49.5898C37.8206 50.0857 37.924 50.5557 37.9242 50.9938C37.9241 51.2204 37.8969 51.4405 37.8401 51.6612C37.5692 52.7117 38.2013 53.7828 39.2518 54.0536C40.3022 54.3244 41.3734 53.6924 41.6441 52.6419C41.7848 52.0968 41.8528 51.5422 41.8527 50.9938C41.8528 49.928 41.5976 48.8929 41.1594 47.9441C40.4995 46.5186 39.4393 45.2743 38.1147 44.2619C36.7879 43.2506 35.1875 42.4692 33.3992 42.0076C32.2512 41.7117 31.1067 41.5694 29.9981 41.5693C27.9544 41.5717 26.0261 42.0466 24.42 42.9994C23.6187 43.4767 22.8987 44.0784 22.3134 44.8065C21.7284 45.5331 21.2822 46.3897 21.0406 47.3302C20.8999 47.8754 20.8319 48.43 20.832 48.9783C20.8319 50.0206 21.076 51.0338 21.4966 51.9651C21.9178 52.8979 22.5135 53.7541 23.2395 54.5194C23.9863 55.3062 25.2295 55.3387 26.0164 54.5919C26.8032 53.8451 26.8358 52.6019 26.0889 51.815Z" fill="#868C98"/>
<path d="M21.128 71.0612C20.6721 70.5813 20.3339 70.0785 20.1166 69.5958C19.8986 69.1117 19.7997 68.6531 19.7995 68.2245C19.7997 67.998 19.8269 67.7779 19.8837 67.5571C19.9824 67.1776 20.1548 66.8383 20.4147 66.5134C20.8021 66.0294 21.404 65.5827 22.1997 65.2597C22.9928 64.9364 23.9697 64.7432 25.0371 64.7439C25.8087 64.7438 26.6268 64.8435 27.4575 65.0578C29.1833 65.5003 30.6213 66.3592 31.5725 67.3385C32.0491 67.8269 32.4036 68.3415 32.6312 68.8359C32.8596 69.3318 32.963 69.8018 32.9632 70.2399C32.9631 70.4665 32.9359 70.6866 32.8791 70.9073C32.6083 71.9578 33.2403 73.0289 34.2908 73.2997C35.3413 73.5705 36.4124 72.9385 36.6832 71.888C36.8238 71.3429 36.8918 70.7883 36.8917 70.2399C36.8919 69.1741 36.6367 68.139 36.1984 67.1902C35.5385 65.7647 34.4784 64.5204 33.1537 63.508C31.827 62.4967 30.2265 61.7153 28.4383 61.2537C27.2903 60.9578 26.1458 60.8155 25.0372 60.8154C22.9935 60.8178 21.0651 61.2927 19.459 62.2455C18.6577 62.7228 17.9378 63.3245 17.3525 64.0526C16.7674 64.7792 16.3213 65.6357 16.0796 66.5763C15.939 67.1215 15.871 67.6761 15.8711 68.2244C15.8709 69.2667 16.1151 70.2799 16.5357 71.2112C16.9569 72.144 17.5526 73.0002 18.2786 73.7655C19.0254 74.5523 20.2686 74.5848 21.0555 73.838C21.8423 73.0912 21.8748 71.848 21.128 71.0612Z" fill="#868C98"/>
<path d="M57.8428 34.3525L62.6637 42.5225L54.25 47.4872" fill="white"/>
<path d="M56.5328 35.1268L60.5799 41.9854L53.4776 46.1763C52.7533 46.6036 52.5127 47.5372 52.94 48.2614C53.3674 48.9857 54.301 49.2263 55.0252 48.799L63.4389 43.8343C64.1631 43.4069 64.4037 42.4733 63.9764 41.7491L59.1555 33.5791C58.7282 32.8549 57.7946 32.6142 57.0704 33.0416C56.3461 33.4689 56.1054 34.4026 56.5328 35.1268Z" fill="#868C98"/>
<path d="M98.2598 44.7725L90.0898 49.5933L95.0546 58.007" fill="white"/>
<path d="M97.4865 43.4605L89.3166 48.2814C88.9712 48.4852 88.716 48.8243 88.6159 49.2126C88.5159 49.6009 88.5752 50.0212 88.779 50.3665L93.7437 58.7802C94.1711 59.5044 95.1047 59.7451 95.8289 59.3177C96.5531 58.8904 96.7938 57.9568 96.3664 57.2326L92.1756 50.1303L99.0342 46.0832C99.7584 45.6559 99.9991 44.7223 99.5717 43.9981C99.1443 43.2739 98.2108 43.0331 97.4865 43.4605Z" fill="#868C98"/>
<path d="M60.1585 65.4671L81.1912 70.8894C82.0055 71.0993 82.8358 70.6094 83.0457 69.7951C83.2556 68.9808 82.7657 68.1505 81.9514 67.9406L60.9187 62.5183C60.1044 62.3084 59.2741 62.7983 59.0642 63.6126C58.8543 64.4269 59.3442 65.2572 60.1585 65.4671Z" fill="#868C98"/>
<path d="M129.5 23.6388C129.5 23.6388 122.306 23.6633 122.306 30.8332C122.306 23.6633 115.111 23.6388 115.111 23.6388C115.111 23.6388 122.306 23.6143 122.306 16.4443C122.306 23.6143 129.5 23.6388 129.5 23.6388Z" stroke="#868C98" stroke-linecap="round" stroke-linejoin="round"/>
<path d="M20.556 119.222C20.556 119.222 14.3893 119.243 14.3893 125.389C14.3893 119.243 8.22266 119.222 8.22266 119.222C8.22266 119.222 14.3893 119.201 14.3893 113.056C14.3893 119.201 20.556 119.222 20.556 119.222Z" stroke="#868C98" stroke-linecap="round" stroke-linejoin="round"/>
<path d="M97.5903 109.072L96.7992 109.612C92.3638 112.651 86.3115 111.514 83.2768 107.083C80.2377 102.652 81.366 96.6 85.8014 93.5609L86.5926 93.0205L97.5903 109.072Z" fill="#E2E4E9" stroke="#868C98" stroke-miterlimit="10" stroke-linejoin="round"/>
<path d="M137.848 71.4532L136.369 81.6772C136.283 82.2651 135.954 82.7925 135.461 83.1297L100.095 107.356L97.5916 109.072L86.5938 93.0208L89.0968 91.3046L124.464 67.0783C124.956 66.7411 125.566 66.6244 126.145 66.7584L136.214 69.0712C137.294 69.3177 138.008 70.3551 137.848 71.4532Z" fill="white" stroke="#868C98" stroke-miterlimit="10" stroke-linejoin="round"/>
</svg>
